<svg viewBox="0 0 1400 750" xmlns="http://www.w3.org/2000/svg" role="img">
<title>JobVault — Event-Driven Processing Architecture</title>
<desc>Internal architecture showing API ingestion, RabbitMQ event bus, Worker processing pipeline, and notification fan-out.</desc>

<defs>
<style>
  text { font-family: "Segoe UI", system-ui, Arial, sans-serif; }
  .sn { font-size: 11px; font-weight: 600; fill: #1e293b; text-anchor: middle; }
  .st { font-size: 9px; fill: #64748b; text-anchor: middle; }
  .al { font-size: 8px; fill: #475569; text-anchor: middle; }
  .alB { font-size: 8px; fill: #3b82f6; text-anchor: middle; }
  .alG { font-size: 8px; fill: #16a34a; text-anchor: middle; }
  .alP { font-size: 8px; fill: #7c3aed; text-anchor: middle; }
  .alR { font-size: 8px; fill: #dc2626; text-anchor: middle; }
  .alO { font-size: 8px; fill: #ea580c; text-anchor: middle; }
  .zl { font-size: 9px; font-weight: 700; fill: #94a3b8; letter-spacing: 1px; }
  .route { font-size: 7.5px; fill: #ea580c; font-family: "Cascadia Code", "Fira Code", monospace; text-anchor: middle; }
  .ack { font-size: 7px; fill: #16a34a; text-anchor: middle; font-weight: 600; }
</style>
<marker id="arr" markerWidth="7" markerHeight="7" refX="5" refY="3.5" orient="auto"><path d="M0,0 L0,7 L7,3.5z" fill="#94a3b8"/></marker>
<marker id="arrB" markerWidth="7" markerHeight="7" refX="5" refY="3.5" orient="auto"><path d="M0,0 L0,7 L7,3.5z" fill="#3b82f6"/></marker>
<marker id="arrG" markerWidth="7" markerHeight="7" refX="5" refY="3.5" orient="auto"><path d="M0,0 L0,7 L7,3.5z" fill="#16a34a"/></marker>
<marker id="arrP" markerWidth="7" markerHeight="7" refX="5" refY="3.5" orient="auto"><path d="M0,0 L0,7 L7,3.5z" fill="#7c3aed"/></marker>
<marker id="arrR" markerWidth="7" markerHeight="7" refX="5" refY="3.5" orient="auto"><path d="M0,0 L0,7 L7,3.5z" fill="#dc2626"/></marker>
<marker id="arrO" markerWidth="7" markerHeight="7" refX="5" refY="3.5" orient="auto"><path d="M0,0 L0,7 L7,3.5z" fill="#ea580c"/></marker>
<marker id="arrGsm" markerWidth="5" markerHeight="5" refX="4" refY="2.5" orient="auto"><path d="M0,0 L0,5 L5,2.5z" fill="#16a34a" opacity="0.5"/></marker>
<filter id="sh"><feDropShadow dx="0" dy="1.5" stdDeviation="2.5" flood-color="#00000010"/></filter>
<filter id="sh2"><feDropShadow dx="0" dy="2" stdDeviation="3.5" flood-color="#00000012"/></filter>
</defs>

<!-- Background -->
<rect width="1400" height="750" fill="#f8fafc"/>

<!-- Header -->
<rect width="1400" height="48" fill="#0f172a"/>
<text x="20" y="25" style="font-size:17px;font-weight:700;fill:#f8fafc">JobVault</text>
<text x="115" y="26" style="font-size:12px;fill:#94a3b8">— Event-Driven Processing Architecture</text>
<text x="20" y="42" style="font-size:9.5px;fill:#94a3b8">Claude Agent → API → RabbitMQ Topic Exchange → Worker Pipeline → GitHub Vault → Real-time Notifications</text>

<!-- ═══ INPUT ZONE ═══ -->
<rect x="22" y="66" width="270" height="240" rx="10" fill="#eef2ff" stroke="#c7d2fe" stroke-width="1"/>
<text x="36" y="82" class="zl">INPUT</text>

<!-- Claude Agent -->
<g transform="translate(90,130)" filter="url(#sh)">
  <circle r="26" fill="#6366f1"/>
  <path d="M0,-12 L3,-3 L12,0 L3,3 L0,12 L-3,3 L-12,0 L-3,-3Z" fill="white"/>
</g>
<text x="90" y="168" class="sn">Claude Agent</text>
<text x="90" y="180" class="st">Evaluate · score · payload</text>

<!-- API -->
<g transform="translate(210,130)" filter="url(#sh)">
  <circle r="26" fill="#3b82f6"/>
  <rect x="-11" y="-10" width="22" height="6" rx="1.5" fill="white"/>
  <rect x="-11" y="-1" width="22" height="6" rx="1.5" fill="white"/>
  <rect x="-11" y="7" width="22" height="6" rx="1.5" fill="white"/>
</g>
<text x="210" y="168" class="sn">JobVault API</text>
<text x="210" y="180" class="st">.NET 9 · ASP.NET Core</text>

<!-- Arrow: Agent → API -->
<line x1="116" y1="130" x2="182" y2="130" stroke="#3b82f6" stroke-width="1.5" marker-end="url(#arrB)"/>
<text x="149" y="123" class="alB">POST /ingest</text>

<!-- Arrow: API → RabbitMQ -->
<line x1="236" y1="130" x2="358" y2="130" stroke="#3b82f6" stroke-width="1.5" marker-end="url(#arrB)"/>
<text x="297" y="120" class="alB">Publish</text>
<text x="297" y="143" class="route">job.application.received</text>

<!-- MongoDB (API side — initial persist) -->
<g transform="translate(210,250)" filter="url(#sh)">
  <circle r="22" fill="#10b981"/>
  <ellipse cx="0" cy="-5" rx="9" ry="3.5" fill="none" stroke="white" stroke-width="1.6"/>
  <line x1="-9" y1="-5" x2="-9" y2="5" stroke="white" stroke-width="1.6"/>
  <line x1="9" y1="-5" x2="9" y2="5" stroke="white" stroke-width="1.6"/>
  <ellipse cx="0" cy="5" rx="9" ry="3.5" fill="none" stroke="white" stroke-width="1.6"/>
</g>
<text x="210" y="283" class="sn">MongoDB</text>
<text x="210" y="295" class="st">Initial Status: Processing</text>

<!-- Arrow: API → MongoDB -->
<line x1="210" y1="156" x2="210" y2="226" stroke="#94a3b8" stroke-width="1.3" stroke-dasharray="4,3" marker-end="url(#arr)"/>
<text x="230" y="195" class="al">Persist</text>

<!-- ═══ RABBITMQ HUB (enlarged ~15%) ═══ -->
<g transform="translate(430,130)" filter="url(#sh2)">
  <circle r="40" fill="#f97316"/>
  <rect x="-18" y="-12" width="36" height="25" rx="3" fill="none" stroke="white" stroke-width="2.2"/>
  <polyline points="-18,-12 0,7 18,-12" fill="none" stroke="white" stroke-width="2.2"/>
</g>
<text x="430" y="185" style="font-size:13px;font-weight:700;fill:#1e293b;text-anchor:middle">RabbitMQ</text>
<text x="430" y="199" class="st">Topic Exchange</text>
<text x="430" y="211" style="font-size:8px;fill:#ea580c;text-anchor:middle;font-family:'Cascadia Code',monospace">job.applications</text>

<!-- ═══ WORKER BOUNDARY ═══ -->
<rect x="530" y="66" width="520" height="310" rx="12" fill="#f0fdf4" stroke="#86efac" stroke-width="1.5" stroke-dasharray="6,4"/>
<text x="544" y="82" class="zl">WORKER SERVICE</text>
<text x="544" y="94" style="font-size:8px;fill:#64748b">.NET 9 Worker Service</text>

<!-- Queue 1: Received Queue -->
<rect x="548" y="108" width="140" height="36" rx="6" fill="#fff7ed" stroke="#fdba74" stroke-width="1"/>
<text x="618" y="126" style="font-size:8px;font-weight:600;fill:#9a3412;text-anchor:middle">📥 Received Queue</text>
<text x="618" y="138" class="route">job.application.received</text>

<!-- Arrow: RabbitMQ → Received Queue -->
<line x1="470" y1="118" x2="546" y2="118" stroke="#ea580c" stroke-width="1.5" marker-end="url(#arrO)"/>
<text x="508" y="111" class="alO">Consume</text>

<!-- ApplicationIngestionConsumer -->
<g transform="translate(618,190)" filter="url(#sh)">
  <circle r="22" fill="#16a34a"/>
  <circle cx="0" cy="0" r="10" fill="none" stroke="white" stroke-width="1.6"/>
  <polygon points="-4,-7 9,0 -4,7" fill="white"/>
</g>
<text x="618" y="222" class="sn">IngestionConsumer</text>
<text x="618" y="234" class="st">ApplicationIngestionConsumer</text>

<!-- Arrow: queue → consumer -->
<line x1="618" y1="144" x2="618" y2="166" stroke="#16a34a" stroke-width="1.3" marker-end="url(#arrG)"/>

<!-- ACK: IngestionConsumer → RabbitMQ -->
<path d="M596,198 L560,210 L490,210 L480,160" fill="none" stroke="#16a34a" stroke-width="0.8" opacity="0.5" marker-end="url(#arrGsm)"/>
<text x="540" y="222" class="ack">ACK</text>

<!-- Document Generation Service -->
<g transform="translate(780,130)" filter="url(#sh)">
  <circle r="22" fill="#16a34a"/>
  <path d="M-8,-12 L5,-12 L10,-7 L10,12 L-8,12Z" fill="none" stroke="white" stroke-width="1.6"/>
  <path d="M5,-12 L5,-7 L10,-7" fill="none" stroke="white" stroke-width="1.2"/>
  <line x1="-4" y1="-1" x2="6" y2="-1" stroke="white" stroke-width="1"/>
  <line x1="-4" y1="4" x2="6" y2="4" stroke="white" stroke-width="1"/>
</g>
<text x="780" y="163" class="sn">Document Generation</text>
<text x="780" y="175" class="st">Node.js · CV + Cover Letter</text>

<!-- Arrow: Consumer → Generation -->
<line x1="640" y1="182" x2="756" y2="140" stroke="#16a34a" stroke-width="1.3" marker-end="url(#arrG)"/>
<text x="698" y="152" class="alG">Generate</text>

<!-- LibreOffice -->
<g transform="translate(920,130)" filter="url(#sh)">
  <circle r="22" fill="#16a34a"/>
  <path d="M-2,-12 A12,12 0 1,0 12,2" fill="none" stroke="white" stroke-width="2"/>
  <polygon points="12,2 12,-4 6,3" fill="white"/>
</g>
<text x="920" y="163" class="sn">LibreOffice</text>
<text x="920" y="175" class="st">DOCX → PDF</text>

<!-- Arrow: Generation → LibreOffice -->
<line x1="802" y1="130" x2="896" y2="130" stroke="#16a34a" stroke-width="1.3" marker-end="url(#arrG)"/>
<text x="849" y="123" class="alG">Convert</text>

<!-- GitHub Vault -->
<g transform="translate(920,260)" filter="url(#sh)">
  <circle r="22" fill="#1e293b"/>
  <rect x="-9" y="0" width="18" height="13" rx="2" fill="none" stroke="white" stroke-width="1.6"/>
  <path d="M-5,0 L-5,-6 A5,5 0 0,1 5,-6 L5,0" fill="none" stroke="white" stroke-width="1.6"/>
  <circle cx="0" cy="6" r="2.5" fill="white"/>
</g>
<text x="920" y="293" class="sn">GitHub Vault</text>
<text x="920" y="305" class="st">6-file atomic commit</text>

<!-- Arrow: LibreOffice → GitHub -->
<line x1="920" y1="152" x2="920" y2="236" stroke="#16a34a" stroke-width="1.3" marker-end="url(#arrG)"/>
<text x="940" y="198" class="alG">Store</text>

<!-- MongoDB update (Worker side) -->
<g transform="translate(780,260)" filter="url(#sh)">
  <circle r="22" fill="#10b981"/>
  <ellipse cx="0" cy="-5" rx="9" ry="3.5" fill="none" stroke="white" stroke-width="1.6"/>
  <line x1="-9" y1="-5" x2="-9" y2="5" stroke="white" stroke-width="1.6"/>
  <line x1="9" y1="-5" x2="9" y2="5" stroke="white" stroke-width="1.6"/>
  <ellipse cx="0" cy="5" rx="9" ry="3.5" fill="none" stroke="white" stroke-width="1.6"/>
</g>
<text x="780" y="293" class="sn">MongoDB</text>
<text x="780" y="305" class="st">Status: Ready to Apply</text>

<!-- Arrow: GitHub → MongoDB update (more prominent) -->
<line x1="898" y1="260" x2="804" y2="260" stroke="#10b981" stroke-width="1.8" marker-end="url(#arrG)"/>
<text x="851" y="250" style="font-size:8.5px;fill:#16a34a;text-anchor:middle;font-weight:600">Update Status</text>

<!-- Queue 2: Application Created Queue -->
<rect x="548" y="320" width="140" height="36" rx="6" fill="#fff7ed" stroke="#fdba74" stroke-width="1"/>
<text x="618" y="338" style="font-size:8px;font-weight:600;fill:#9a3412;text-anchor:middle">📥 Application Created</text>
<text x="618" y="350" class="route">job.application.created|updated</text>

<!-- Arrow: RabbitMQ → Application Created Queue -->
<path d="M470,155 L500,280 L520,338 L546,338" fill="none" stroke="#ea580c" stroke-width="1.3" marker-end="url(#arrO)"/>
<text x="520" y="320" class="alO">Consume</text>

<!-- TelegramNotificationConsumer -->
<g transform="translate(780,338)" filter="url(#sh)">
  <circle r="22" fill="#7c3aed"/>
  <circle cx="0" cy="0" r="10" fill="none" stroke="white" stroke-width="1.6"/>
  <polygon points="-4,-7 9,0 -4,7" fill="white"/>
</g>
<text x="780" y="370" class="sn">NotificationConsumer</text>
<text x="780" y="382" class="st">TelegramNotificationConsumer</text>

<!-- Arrow: queue → NotificationConsumer -->
<line x1="688" y1="338" x2="756" y2="338" stroke="#7c3aed" stroke-width="1.3" marker-end="url(#arrP)"/>

<!-- ACK: NotificationConsumer → RabbitMQ -->
<path d="M758,330 L700,318 L550,318 L540,310 L490,310 L465,175" fill="none" stroke="#16a34a" stroke-width="0.8" opacity="0.4" marker-end="url(#arrGsm)"/>
<text x="520" y="308" class="ack">ACK</text>

<!-- Telegram Bot -->
<g transform="translate(920,338)" filter="url(#sh)">
  <circle r="22" fill="#7c3aed"/>
  <polygon points="-11,5 11,0 -11,-5" fill="white"/>
  <polygon points="-11,5 -3,1 -2,7" fill="#7c3aed"/>
</g>
<text x="920" y="370" class="sn">Telegram Bot</text>
<text x="920" y="382" class="st">Push notification</text>

<!-- Arrow: Consumer → Telegram -->
<line x1="802" y1="338" x2="896" y2="338" stroke="#7c3aed" stroke-width="1.3" marker-end="url(#arrP)"/>
<text x="849" y="331" class="alP">Alert</text>

<!-- ═══ FEEDBACK LOOP (differentiated: lighter, longer dash) ═══ -->
<path d="M758,270 L700,270 Q680,270 680,250 Q680,240 550,240 L490,240 L475,175" fill="none" stroke="#ea580c" stroke-width="1.2" opacity="0.55" stroke-dasharray="8,5" marker-end="url(#arrO)"/>
<text x="590" y="255" style="font-size:7.5px;fill:#ea580c;font-family:'Cascadia Code',monospace;text-anchor:middle;opacity:0.8">Publish: job.application.created + notification.new</text>

<!-- ═══ API BOUNDARY (SSE) ═══ -->
<rect x="300" y="430" width="750" height="200" rx="12" fill="#faf5ff" stroke="#e9d5ff" stroke-width="1.5" stroke-dasharray="6,4"/>
<text x="314" y="446" class="zl">API SERVICE — SSE NOTIFICATIONS</text>
<text x="314" y="458" style="font-size:8px;fill:#64748b">Hosted in JobVault.API process</text>

<!-- Queue 3: Notifications Queue -->
<rect x="340" y="480" width="140" height="36" rx="6" fill="#fff7ed" stroke="#fdba74" stroke-width="1"/>
<text x="410" y="498" style="font-size:8px;font-weight:600;fill:#9a3412;text-anchor:middle">📥 Notifications Queue</text>
<text x="410" y="510" class="route">notification.#</text>

<!-- Arrow: RabbitMQ → Notifications Queue -->
<path d="M450,170 L450,400 Q450,420 430,420 L410,420 L410,478" fill="none" stroke="#ea580c" stroke-width="1.3" marker-end="url(#arrO)"/>
<text x="460" y="400" class="alO" style="text-anchor:start">Consume</text>

<!-- SSE Consumer -->
<g transform="translate(560,498)" filter="url(#sh)">
  <circle r="22" fill="#7c3aed"/>
  <circle cx="0" cy="0" r="10" fill="none" stroke="white" stroke-width="1.6"/>
  <polygon points="-4,-7 9,0 -4,7" fill="white"/>
</g>
<text x="560" y="530" class="sn">SSE Consumer</text>
<text x="560" y="542" class="st">SseNotificationConsumer</text>

<!-- Arrow: queue → SSE Consumer -->
<line x1="480" y1="498" x2="536" y2="498" stroke="#7c3aed" stroke-width="1.3" marker-end="url(#arrP)"/>

<!-- ACK: SSE Consumer → RabbitMQ -->
<path d="M544,510 L440,510 L440,420" fill="none" stroke="#16a34a" stroke-width="0.8" opacity="0.4" marker-end="url(#arrGsm)"/>
<text x="490" y="520" class="ack">ACK</text>

<!-- Notifications DB -->
<g transform="translate(700,498)" filter="url(#sh)">
  <circle r="22" fill="#10b981"/>
  <ellipse cx="0" cy="-5" rx="9" ry="3.5" fill="none" stroke="white" stroke-width="1.6"/>
  <line x1="-9" y1="-5" x2="-9" y2="5" stroke="white" stroke-width="1.6"/>
  <line x1="9" y1="-5" x2="9" y2="5" stroke="white" stroke-width="1.6"/>
  <ellipse cx="0" cy="5" rx="9" ry="3.5" fill="none" stroke="white" stroke-width="1.6"/>
</g>
<text x="700" y="530" class="sn">Notifications DB</text>
<text x="700" y="542" class="st">MongoDB · persist</text>

<!-- Arrow: SSE Consumer → Notifications DB -->
<line x1="582" y1="498" x2="676" y2="498" stroke="#7c3aed" stroke-width="1.3" marker-end="url(#arrP)"/>
<text x="629" y="491" class="alP">Save</text>

<!-- NotificationHub -->
<g transform="translate(840,498)" filter="url(#sh)">
  <circle r="22" fill="#7c3aed"/>
  <circle cx="0" cy="8" r="3" fill="white"/>
  <path d="M-6,3 A7,7 0 0,1 6,3" fill="none" stroke="white" stroke-width="1.6"/>
  <path d="M-11,-2 A13,13 0 0,1 11,-2" fill="none" stroke="white" stroke-width="1.6"/>
  <path d="M-15,-7 A18,18 0 0,1 15,-7" fill="none" stroke="white" stroke-width="1.3"/>
</g>
<text x="840" y="530" class="sn">NotificationHub</text>
<text x="840" y="542" class="st">SSE · in-process broadcast</text>

<!-- Arrow: DB → Hub -->
<line x1="722" y1="498" x2="816" y2="498" stroke="#7c3aed" stroke-width="1.3" marker-end="url(#arrP)"/>
<text x="769" y="491" class="alP">Broadcast</text>

<!-- Vue 3 UI -->
<g transform="translate(980,498)" filter="url(#sh)">
  <circle r="22" fill="#7c3aed"/>
  <rect x="-11" y="-9" width="22" height="16" rx="2" fill="none" stroke="white" stroke-width="1.6"/>
  <line x1="-4" y1="7" x2="-2" y2="11" stroke="white" stroke-width="1.4"/>
  <line x1="4" y1="7" x2="2" y2="11" stroke="white" stroke-width="1.4"/>
  <line x1="-5" y1="11" x2="5" y2="11" stroke="white" stroke-width="1.4"/>
</g>
<text x="980" y="530" class="sn">Vue 3 Dashboard</text>
<text x="980" y="542" class="st">PWA · real-time SSE</text>

<!-- Arrow: Hub → Vue -->
<line x1="862" y1="498" x2="956" y2="498" stroke="#7c3aed" stroke-width="1.3" marker-end="url(#arrP)"/>
<text x="909" y="491" class="alP">SSE stream</text>

<!-- ═══ DLQ ═══ -->
<rect x="22" y="430" width="240" height="100" rx="10" fill="#fef2f2" stroke="#fecaca" stroke-width="1"/>
<text x="36" y="446" class="zl" style="fill:#dc2626">DEAD LETTER QUEUE</text>

<g transform="translate(90,498)" filter="url(#sh)">
  <circle r="22" fill="#ef4444"/>
  <circle cx="0" cy="0" r="10" fill="none" stroke="white" stroke-width="1.6"/>
  <line x1="-5" y1="-5" x2="5" y2="5" stroke="white" stroke-width="2"/>
  <line x1="5" y1="-5" x2="-5" y2="5" stroke="white" stroke-width="2"/>
</g>
<text x="142" y="490" style="font-size:9px;font-weight:600;fill:#dc2626">DLQ</text>
<text x="142" y="503" style="font-size:8px;fill:#64748b">3 retries exhausted</text>
<text x="142" y="515" class="route" style="fill:#dc2626;text-anchor:start">job.applications.dlq</text>

<!-- Arrow: RabbitMQ → DLQ -->
<path d="M400,158 L380,220 L350,320 L280,400 L200,460 L140,476" fill="none" stroke="#dc2626" stroke-width="1.3" stroke-dasharray="4,3" marker-end="url(#arrR)"/>
<text x="270" y="380" class="alR">NACK → DLX</text>

<!-- ═══ LEGEND ═══ -->
<rect x="1100" y="66" width="280" height="210" rx="10" fill="white" stroke="#e2e8f0" stroke-width="1"/>
<text x="1114" y="84" style="font-size:8px;font-weight:700;fill:#94a3b8;letter-spacing:0.8px">LEGEND</text>

<circle cx="1120" cy="102" r="5" fill="#6366f1"/><text x="1132" y="105" style="font-size:8.5px;fill:#475569">AI Agent (input)</text>
<circle cx="1120" cy="120" r="5" fill="#3b82f6"/><text x="1132" y="123" style="font-size:8.5px;fill:#475569">API (ingestion + SSE host)</text>
<circle cx="1120" cy="138" r="5" fill="#16a34a"/><text x="1132" y="141" style="font-size:8.5px;fill:#475569">Worker processing pipeline</text>
<circle cx="1120" cy="156" r="5" fill="#f97316"/><text x="1132" y="159" style="font-size:8.5px;fill:#475569">RabbitMQ (topic exchange)</text>
<circle cx="1120" cy="174" r="5" fill="#7c3aed"/><text x="1132" y="177" style="font-size:8.5px;fill:#475569">Notification fan-out</text>
<circle cx="1120" cy="192" r="5" fill="#10b981"/><text x="1132" y="195" style="font-size:8.5px;fill:#475569">MongoDB (persistence)</text>
<circle cx="1120" cy="210" r="5" fill="#ef4444"/><text x="1132" y="213" style="font-size:8.5px;fill:#475569">Dead letter queue</text>

<rect x="1114" y="228" width="80" height="12" rx="3" fill="#fff7ed" stroke="#fdba74" stroke-width="0.8"/>
<text x="1154" y="237" style="font-size:7.5px;fill:#9a3412;text-anchor:middle">📥 Queue</text>
<text x="1200" y="237" style="font-size:8px;fill:#475569">= RabbitMQ queue</text>

<line x1="1114" y1="252" x2="1150" y2="252" stroke="#ea580c" stroke-width="1.2" opacity="0.55" stroke-dasharray="8,5"/>
<text x="1160" y="255" style="font-size:8px;fill:#475569">= feedback loop</text>

<line x1="1114" y1="268" x2="1140" y2="268" stroke="#16a34a" stroke-width="0.8" opacity="0.5" marker-end="url(#arrGsm)"/>
<text x="1150" y="271" style="font-size:8px;fill:#475569">= ACK</text>

</svg>
